<svg width="37" height="37" viewBox="0 0 37 37" fill="none" xmlns="http://www.w3.org/2000/svg">
<rect width="37" height="37" rx="18.5" fill="#000223"/>
<path fill-rule="evenodd" clip-rule="evenodd" d="M19.5103 18.5002L23.291 14.7195C23.5703 14.4402 23.5703 13.9888 23.291 13.7095C23.0117 13.4302 22.5603 13.4302 22.281 13.7095L18.5002 17.4902L14.7195 13.7095C14.4402 13.4302 13.9888 13.4302 13.7095 13.7095C13.4302 13.9888 13.4302 14.4402 13.7095 14.7195L17.4902 18.5002L13.7095 22.281C13.4302 22.5602 13.4302 23.0117 13.7095 23.291C13.8488 23.4302 14.0316 23.5002 14.2145 23.5002C14.3973 23.5002 14.5802 23.4302 14.7195 23.291L18.5002 19.5102L22.281 23.291C22.4203 23.4302 22.6032 23.5002 22.786 23.5002C22.9689 23.5002 23.1517 23.4302 23.291 23.291C23.5703 23.0117 23.5703 22.5602 23.291 22.281L19.5103 18.5002Z" fill="white"/>
</svg>
