<svg width="40" height="40" viewBox="0 0 40 40" fill="none" xmlns="http://www.w3.org/2000/svg">
<rect width="40" height="40" rx="20" fill="#FB804B"/>
<path fill-rule="evenodd" clip-rule="evenodd" d="M23.3332 17.3333C23.7014 17.3333 23.9998 17.6317 23.9998 17.9999V24.6666C23.9998 25.7712 23.1044 26.6666 21.9998 26.6666H17.9998C16.8953 26.6666 15.9998 25.7712 15.9998 24.6666V17.9999C15.9998 17.6317 16.2983 17.3333 16.6665 17.3333H23.3332ZM22.6665 18.6666H17.3332V24.6666C17.3332 25.0348 17.6316 25.3333 17.9998 25.3333H21.9998C22.368 25.3333 22.6665 25.0348 22.6665 24.6666V18.6666ZM17.9998 13.9999C17.9998 13.6317 18.2983 13.3333 18.6665 13.3333H21.3332C21.7014 13.3333 21.9998 13.6317 21.9998 13.9999V14.6666H24.6665C25.0347 14.6666 25.3332 14.9651 25.3332 15.3333C25.3332 15.7014 25.0347 15.9999 24.6665 15.9999H15.3332C14.965 15.9999 14.6665 15.7014 14.6665 15.3333C14.6665 14.9651 14.965 14.6666 15.3332 14.6666H17.9998V13.9999Z" fill="white"/>
</svg>
