<svg width="40" height="40" viewBox="0 0 40 40" fill="none" xmlns="http://www.w3.org/2000/svg">
<rect width="40" height="40" rx="20" fill="#000223"/>
<path fill-rule="evenodd" clip-rule="evenodd" d="M26.0002 25.3334C26.3684 25.3334 26.6668 25.6319 26.6668 26C26.6668 26.3682 26.3684 26.6667 26.0002 26.6667H14.0002C13.632 26.6667 13.3335 26.3682 13.3335 26C13.3335 25.6319 13.632 25.3334 14.0002 25.3334H26.0002ZM16.1954 20.862L23.5288 13.5286C23.7691 13.2883 24.1472 13.2698 24.4088 13.4732L24.4716 13.5286L26.4716 15.5286C26.7119 15.769 26.7304 16.1471 26.527 16.4086L26.4716 16.4714L19.1382 23.8048C19.034 23.909 18.8989 23.9751 18.7545 23.9943L18.6668 24H16.6668C16.3249 24 16.0432 23.7427 16.0046 23.4111L16.0002 23.3334V21.3334C16.0002 21.186 16.0489 21.0437 16.1375 20.928L16.1954 20.862L23.5288 13.5286L16.1954 20.862ZM24.0002 14.9428L17.3335 21.6095V22.6667H18.3907L25.0574 16L24.0002 14.9428Z" fill="white"/>
</svg>
