<svg width="38" height="27" viewBox="0 0 38 27" fill="none" xmlns="http://www.w3.org/2000/svg">
<path d="M24.7553 14.9489L21.6642 18.0504C20.4107 19.3083 18.2052 19.3354 16.9246 18.0504L13.8333 14.9489L2.73096 26.0873C3.14422 26.2784 3.59988 26.3924 4.0843 26.3924H34.5045C34.9889 26.3924 35.4444 26.2785 35.8576 26.0873L24.7553 14.9489Z" fill="#FE7A49"/>
<path d="M34.5046 0.441528H4.08438C3.59996 0.441528 3.14431 0.555568 2.73118 0.746668L14.5948 12.6497C14.5956 12.6505 14.5966 12.6506 14.5974 12.6514C14.5979 12.6519 14.5982 12.6526 14.5983 12.6533L18.4558 16.5236C18.8656 16.9333 19.7235 16.9333 20.1333 16.5236L23.99 12.6539C23.99 12.6539 23.9909 12.6522 23.9917 12.6514C23.9917 12.6514 23.9935 12.6505 23.9943 12.6497L35.8576 0.746596C35.4445 0.555424 34.989 0.441528 34.5046 0.441528ZM1.18552 2.25896C0.971711 2.69133 0.840515 3.17127 0.840515 3.68539V23.1486C0.840515 23.6627 0.971567 24.1426 1.18545 24.575L12.3071 13.4173L1.18552 2.25896ZM37.4034 2.25881L26.282 13.4173L37.4034 24.5751C37.6173 24.1428 37.7484 23.6628 37.7484 23.1486V3.68539C37.7484 3.17113 37.6173 2.69118 37.4034 2.25881Z" fill="#FE7A49"/>
</svg>
