<svg width="16" height="16" viewBox="0 0 16 16" fill="none" xmlns="http://www.w3.org/2000/svg">
<path fill-rule="evenodd" clip-rule="evenodd" d="M3.3335 14.6666C2.22893 14.6666 1.3335 13.7712 1.3335 12.6666V4.66658C1.3335 3.56202 2.22893 2.66659 3.3335 2.66659H4.00016V1.99992C4.00016 1.63173 4.29864 1.33325 4.66683 1.33325C5.03502 1.33325 5.3335 1.63173 5.3335 1.99992V2.66659H10.6668V1.99992C10.6668 1.63173 10.9653 1.33325 11.3335 1.33325C11.7017 1.33325 12.0002 1.63173 12.0002 1.99992V2.66659H12.6668C13.7714 2.66659 14.6668 3.56202 14.6668 4.66658V12.6666C14.6668 13.7712 13.7714 14.6666 12.6668 14.6666H3.3335ZM5.3335 11.3333H2.66683V12.6666C2.66683 13.0348 2.96531 13.3333 3.3335 13.3333H5.3335V11.3333ZM9.3335 11.3333H6.66683V13.3333H9.3335V11.3333ZM13.3335 11.3333H10.6668V13.3333H12.6668C13.035 13.3333 13.3335 13.0348 13.3335 12.6666V11.3333ZM5.3335 7.99992H2.66683V9.99992H5.3335V7.99992ZM9.3335 7.99992H6.66683V9.99992H9.3335V7.99992ZM13.3335 7.99992H10.6668V9.99992H13.3335V7.99992ZM4.00016 3.99992H3.3335C2.96531 3.99992 2.66683 4.2984 2.66683 4.66659V6.66659H13.3335V4.66659C13.3335 4.2984 13.035 3.99992 12.6668 3.99992H12.0002V4.66659C12.0002 5.03478 11.7017 5.33325 11.3335 5.33325C10.9653 5.33325 10.6668 5.03478 10.6668 4.66659V3.99992H5.3335V4.66659C5.3335 5.03478 5.03502 5.33325 4.66683 5.33325C4.29864 5.33325 4.00016 5.03478 4.00016 4.66659V3.99992Z" fill="#03A89E"/>
</svg>
