<svg width="20" height="20" viewBox="0 0 20 20" fill="none" xmlns="http://www.w3.org/2000/svg">
<path fill-rule="evenodd" clip-rule="evenodd" d="M15.8332 3.33325C17.2139 3.33325 18.3332 4.45254 18.3332 5.83325V14.1666C18.3332 15.5473 17.2139 16.6666 15.8332 16.6666H4.1665C2.78579 16.6666 1.6665 15.5473 1.6665 14.1666V5.83325C1.6665 4.45254 2.78579 3.33325 4.1665 3.33325H15.8332ZM16.6665 6.10659L10.5486 11.4604C10.2606 11.7124 9.84238 11.7334 9.53268 11.5234L9.45108 11.4604L3.33317 6.10742V14.1666C3.33317 14.6268 3.70627 14.9999 4.1665 14.9999H15.8332C16.2934 14.9999 16.6665 14.6268 16.6665 14.1666V6.10659ZM15.3998 4.99992H4.59817L9.99984 9.72595L15.3998 4.99992Z" fill="#000223"/>
</svg>
