<svg width="37" height="37" viewBox="0 0 37 37" fill="none" xmlns="http://www.w3.org/2000/svg">
<path d="M21.9874 18.455C21.9874 20.406 20.4059 21.9874 18.455 21.9874C16.5041 21.9874 14.9226 20.4059 14.9226 18.455C14.9226 16.5041 16.5041 14.9226 18.455 14.9226C20.4059 14.9226 21.9874 16.5041 21.9874 18.455Z" fill="#FE7A49"/>
<path d="M26.7161 12.2052C26.5462 11.7449 26.2753 11.3285 25.9234 10.9867C25.5816 10.6346 25.1652 10.3638 24.7048 10.194C24.3314 10.049 23.7706 9.87633 22.7373 9.82933C21.6196 9.77836 21.2845 9.76733 18.455 9.76733C15.6252 9.76733 15.2901 9.77807 14.1727 9.82904C13.1395 9.87633 12.5782 10.0489 12.2052 10.194C11.7448 10.3637 11.3284 10.6346 10.9866 10.9867C10.6346 11.3285 10.3637 11.7449 10.1937 12.2052C10.0487 12.5786 9.87603 13.1398 9.82903 14.173C9.77806 15.2904 9.76703 15.6255 9.76703 18.4553C9.76703 21.2848 9.77806 21.6199 9.82903 22.7376C9.87603 23.7708 10.0487 24.3318 10.1937 24.7051C10.3636 25.1654 10.6344 25.5818 10.9864 25.9237C11.3282 26.2757 11.7446 26.5466 12.2049 26.7164C12.5783 26.8616 13.1395 27.0343 14.1727 27.0813C15.2901 27.1323 15.6249 27.143 18.4547 27.143C21.2848 27.143 21.6199 27.1323 22.737 27.0813C23.7702 27.0343 24.3315 26.8616 24.7048 26.7164C25.1619 26.5401 25.577 26.27 25.9233 25.9237C26.2697 25.5773 26.5398 25.1622 26.7161 24.7051C26.861 24.3317 27.0337 23.7709 27.081 22.7376C27.132 21.6199 27.1427 21.2848 27.1427 18.4553C27.1427 15.6255 27.132 15.2904 27.081 14.173C27.034 13.1398 26.8613 12.5785 26.7161 12.2052ZM18.455 23.8967C15.4495 23.8967 13.0131 21.4605 13.0131 18.455C13.0131 15.4495 15.4495 13.0134 18.455 13.0134C21.4603 13.0134 23.8966 15.4495 23.8966 18.455C23.8966 21.4605 21.4603 23.8967 18.455 23.8967ZM24.1118 14.0699C23.4095 14.0699 22.8402 13.5005 22.8402 12.7983C22.8402 12.0961 23.4095 11.5265 24.1118 11.5265C24.8141 11.5265 25.3835 12.0959 25.3835 12.7982C25.3832 13.5005 24.8141 14.0699 24.1118 14.0699Z" fill="#FE7A49"/>
<path d="M18.455 0C8.26416 0 0 8.26416 0 18.455C0 28.6458 8.26416 36.91 18.455 36.91C28.6458 36.91 36.91 28.6458 36.91 18.455C36.91 8.26416 28.6458 0 18.455 0ZM28.9883 22.824C28.9371 23.9521 28.7576 24.7223 28.4957 25.3965C28.2235 26.1004 27.8072 26.7398 27.2735 27.2735C26.7398 27.8072 26.1004 28.2235 25.3965 28.4957C24.7226 28.7576 23.9521 28.9367 22.8243 28.9883C21.6943 29.0398 21.3333 29.0522 18.4553 29.0522C15.577 29.0522 15.2163 29.0398 14.0859 28.9883C12.9581 28.9367 12.1877 28.7576 11.5138 28.4957C10.8066 28.2297 10.166 27.8125 9.63668 27.2733C9.09765 26.744 8.68057 26.1035 8.41454 25.3965C8.15264 24.7226 7.97328 23.9521 7.92202 22.8243C7.8699 21.6939 7.85779 21.333 7.85779 18.455C7.85779 15.577 7.8699 15.216 7.92174 14.086C7.97292 12.9579 8.15206 12.1877 8.41397 11.5135C8.68008 10.8064 9.09734 10.1659 9.63661 9.63668C10.1658 9.09746 10.8064 8.68027 11.5135 8.41425C12.1877 8.15235 12.9579 7.97328 14.086 7.92174C15.216 7.87019 15.577 7.85779 18.455 7.85779C21.333 7.85779 21.694 7.87019 22.824 7.92195C23.9521 7.97328 24.7223 8.15235 25.3965 8.41397C26.1037 8.68013 26.7443 9.09738 27.2737 9.63661C27.8127 10.1659 28.2298 10.8064 28.4957 11.5135C28.7579 12.1877 28.937 12.9579 28.9886 14.086C29.0401 15.216 29.0522 15.577 29.0522 18.455C29.0522 21.333 29.0401 21.694 28.9883 22.824Z" fill="#FE7A49"/>
</svg>
