<svg width="37" height="37" viewBox="0 0 37 37" fill="none" xmlns="http://www.w3.org/2000/svg">
<path d="M18.455 0C8.26416 0 0 8.26416 0 18.455C0 28.6458 8.26416 36.91 18.455 36.91C28.6458 36.91 36.91 28.6458 36.91 18.455C36.91 8.26416 28.6458 0 18.455 0ZM13.0922 27.8988H8.59758V14.3766H13.0922L13.0922 27.8988ZM10.845 12.5301H10.8157C9.30745 12.5301 8.332 11.4918 8.332 10.1942C8.332 8.86734 9.33729 7.85779 10.8749 7.85779C12.4124 7.85779 13.3586 8.86734 13.3879 10.1942C13.3879 11.4918 12.4124 12.5302 10.845 12.5302V12.5301ZM29.299 27.8988H24.8049V20.6647C24.8049 18.8467 24.1541 17.6068 22.5279 17.6068C21.2863 17.6068 20.5468 18.4432 20.2218 19.2505C20.103 19.5394 20.074 19.9433 20.074 20.3474V27.8988H15.5796C15.5796 27.8988 15.6385 15.6452 15.5796 14.3766H20.074V16.2912C20.6713 15.3698 21.74 14.0592 24.1246 14.0592C27.0817 14.0592 29.299 15.9918 29.299 20.1451V27.8988Z" fill="#FE7A49"/>
</svg>
