<svg width="4" height="19" viewBox="0 0 4 19" fill="none" xmlns="http://www.w3.org/2000/svg">
<path fill-rule="evenodd" clip-rule="evenodd" d="M2 14.458C3.10457 14.458 4 15.3534 4 16.458C4 17.5626 3.10457 18.458 2 18.458C0.89543 18.458 0 17.5626 0 16.458C0 15.3534 0.89543 14.458 2 14.458ZM2 7.45801C3.10457 7.45801 4 8.35344 4 9.45801C4 10.5626 3.10457 11.458 2 11.458C0.89543 11.458 0 10.5626 0 9.45801C0 8.35344 0.89543 7.45801 2 7.45801ZM2 0.458008C3.10457 0.458008 4 1.35344 4 2.45801C4 3.56258 3.10457 4.45801 2 4.45801C0.89543 4.45801 0 3.56258 0 2.45801C0 1.35344 0.89543 0.458008 2 0.458008Z" fill="#000223"/>
</svg>
