<svg width="38" height="37" viewBox="0 0 38 37" fill="none" xmlns="http://www.w3.org/2000/svg">
<path d="M28.9003 24.501C27.6945 23.3106 26.1892 23.3106 24.9911 24.501C24.0772 25.4073 23.1632 26.3136 22.2646 27.2352C22.0189 27.4886 21.8115 27.5424 21.512 27.3734C20.9206 27.0508 20.2908 26.7897 19.7225 26.4364C17.0728 24.7698 14.8533 22.6271 12.8871 20.2155C11.9117 19.0174 11.0439 17.7348 10.4371 16.2909C10.3143 15.9991 10.3373 15.807 10.5754 15.569C11.4893 14.6857 12.3802 13.7795 13.2788 12.8732C14.5307 11.6137 14.5307 10.1391 13.2711 8.87183C12.5569 8.1499 11.8426 7.44332 11.1284 6.72138C10.3911 5.98408 9.66145 5.2391 8.91647 4.50948C7.71068 3.33441 6.20536 3.33441 5.00725 4.51716C4.08563 5.42343 3.20241 6.35273 2.26542 7.24363C1.39756 8.06541 0.959791 9.07152 0.867629 10.2466C0.721705 12.159 1.1902 13.9638 1.85069 15.7226C3.20241 19.363 5.2607 22.5963 7.75676 25.5609C11.1284 29.57 15.1528 32.7419 19.8607 35.0306C21.9805 36.0597 24.177 36.8508 26.5656 36.9813C28.2091 37.0735 29.6376 36.6588 30.782 35.3762C31.5654 34.5006 32.4486 33.7019 33.278 32.8648C34.5069 31.6206 34.5146 30.1152 33.2934 28.8864C31.8342 27.4195 30.3672 25.9603 28.9003 24.501ZM27.4334 18.3799L30.2674 17.8961C29.822 15.2925 28.5931 12.9347 26.7268 11.0607C24.753 9.08688 22.257 7.84269 19.5075 7.45868L19.1081 10.308C21.2355 10.6076 23.1709 11.5676 24.6993 13.0959C26.1431 14.5398 27.0878 16.3677 27.4334 18.3799ZM31.8649 6.06088C28.5931 2.78912 24.4535 0.723149 19.8838 0.0856934L19.4844 2.93504C23.432 3.48802 27.011 5.2775 29.8373 8.09613C32.5177 10.7765 34.2765 14.1635 34.9139 17.8884L37.7479 17.4045C37.0029 13.0883 34.9677 9.17136 31.8649 6.06088Z" fill="#FE7A49"/>
</svg>
