<svg width="18" height="18" viewBox="0 0 18 18" fill="none" xmlns="http://www.w3.org/2000/svg">
<path d="M17.9531 6.55314C17.8955 6.37477 17.7867 6.21728 17.6403 6.10031C17.4938 5.98334 17.3162 5.91206 17.1295 5.89535L11.9342 5.42358L9.87985 0.615138C9.72832 0.262758 9.38336 0.034729 9.00008 0.034729C8.6168 0.034729 8.2718 0.262793 8.12034 0.616017L6.06597 5.42362L0.86985 5.89535C0.683382 5.91243 0.506027 5.98387 0.359775 6.1008C0.213523 6.21773 0.104806 6.37501 0.0471024 6.55314C-0.0714123 6.91765 0.0380319 7.31743 0.326848 7.56943L4.2539 11.0134L3.09589 16.1144C3.01117 16.4894 3.15672 16.8771 3.46793 17.1021C3.63517 17.2229 3.83089 17.2845 4.02823 17.2845C4.19839 17.2845 4.36714 17.2386 4.51867 17.148L9.00008 14.4695L13.4799 17.148C13.8077 17.3452 14.2209 17.3272 14.5314 17.1021C14.6834 16.992 14.7997 16.8398 14.8659 16.6641C14.932 16.4885 14.9451 16.2974 14.9035 16.1144L13.7455 11.0134L17.6725 7.57013C17.8138 7.44675 17.9157 7.28459 17.9655 7.10378C18.0154 6.92298 18.0111 6.7315 17.9531 6.55314Z" fill="#FFC107"/>
</svg>
