<svg width="36" height="35" viewBox="0 0 36 35" fill="none" xmlns="http://www.w3.org/2000/svg">
<path d="M24.5064 10.3742C23.2896 4.72268 20.6945 1.14723 18.2944 1.14723C15.8942 1.14723 13.2991 4.72268 12.0823 10.3742H24.5064ZM11.3741 17.2944C11.3739 18.8374 11.4767 20.3787 11.6821 21.9079H24.9067C25.112 20.3787 25.2149 18.8374 25.2146 17.2944C25.2149 15.7515 25.112 14.2102 24.9067 12.681H11.6821C11.4767 14.2102 11.3739 15.7515 11.3741 17.2944ZM12.0823 24.2147C13.2991 29.8662 15.8942 33.4417 18.2944 33.4417C20.6945 33.4417 23.2896 29.8662 24.5064 24.2147H12.0823ZM26.8686 10.3742H34.1348C33.043 7.88957 31.3842 5.69537 29.2913 3.96761C27.1983 2.23985 24.7297 1.02661 22.0832 0.425217C24.2712 2.3502 25.9874 5.9095 26.8686 10.3742ZM34.9641 12.681H27.2365C27.4267 14.2114 27.5219 15.7522 27.5214 17.2944C27.5215 18.8367 27.426 20.3775 27.2353 21.9079H34.9629C35.804 18.8898 35.8052 15.6991 34.9641 12.681ZM22.0832 34.1637C24.7301 33.5626 27.1992 32.3495 29.2926 30.6217C31.3859 28.894 33.0451 26.6996 34.1371 24.2147H26.8709C25.9874 28.6794 24.2712 32.2387 22.0832 34.1637ZM9.72021 24.2147H2.45396C3.54596 26.6996 5.20518 28.894 7.29851 30.6217C9.39183 32.3495 11.861 33.5626 14.5079 34.1637C12.3176 32.2387 10.6014 28.6794 9.72021 24.2147ZM14.5055 0.425217C11.8587 1.02629 9.38953 2.23938 7.2962 3.96716C5.20288 5.69493 3.54365 7.8893 2.45165 10.3742H9.7179C10.6014 5.9095 12.3176 2.3502 14.5055 0.425217ZM9.0674 17.2944C9.06725 15.7522 9.16278 14.2114 9.35343 12.681H1.62583C0.784715 15.6991 0.784715 18.8898 1.62583 21.9079H9.35343C9.16278 20.3775 9.06725 18.8367 9.0674 17.2944Z" fill="#FE7A49"/>
</svg>
